<svg width="37" height="36" viewBox="0 0 37 36" fill="none" xmlns="http://www.w3.org/2000/svg">
<path d="M32.569 35.4367L21.0982 23.9659C20.074 24.7852 18.8962 25.4339 17.5647 25.9118C16.2333 26.3898 14.8165 26.6287 13.3144 26.6287C9.59317 26.6287 6.44415 25.3403 3.86731 22.7635C1.2891 20.1853 0 17.0356 0 13.3144C0 9.59317 1.2891 6.44347 3.86731 3.86526C6.44415 1.28842 9.59317 0 13.3144 0C17.0356 0 20.1853 1.28842 22.7635 3.86526C25.3403 6.44347 26.6287 9.59317 26.6287 13.3144C26.6287 14.8165 26.3898 16.2333 25.9118 17.5647C25.4339 18.8962 24.7852 20.074 23.9659 21.0982L35.4879 32.6202C35.8634 32.9957 36.0512 33.4566 36.0512 34.0028C36.0512 34.5491 35.8464 35.027 35.4367 35.4367C35.0612 35.8122 34.5832 36 34.0028 36C33.4225 36 32.9445 35.8122 32.569 35.4367ZM13.3144 22.532C15.8748 22.532 18.0515 21.6362 19.8446 19.8446C21.6362 18.0515 22.532 15.8748 22.532 13.3144C22.532 10.7539 21.6362 8.57718 19.8446 6.78418C18.0515 4.99255 15.8748 4.09673 13.3144 4.09673C10.7539 4.09673 8.57718 4.99255 6.78418 6.78418C4.99255 8.57718 4.09673 10.7539 4.09673 13.3144C4.09673 15.8748 4.99255 18.0515 6.78418 19.8446C8.57718 21.6362 10.7539 22.532 13.3144 22.532Z" fill="#FAF3C9"/>
</svg>
