<svg width="21" height="18" viewBox="0 0 21 18" fill="none" xmlns="http://www.w3.org/2000/svg">
<path d="M0 1.5C0 1.10218 0.138281 0.720645 0.384423 0.43934C0.630564 0.158036 0.964403 0 1.3125 0H19.6875C20.0356 0 20.3694 0.158036 20.6156 0.43934C20.8617 0.720645 21 1.10218 21 1.5C21 1.89782 20.8617 2.27936 20.6156 2.56066C20.3694 2.84196 20.0356 3 19.6875 3H1.3125C0.964403 3 0.630564 2.84196 0.384423 2.56066C0.138281 2.27936 0 1.89782 0 1.5ZM0 9C0 8.60218 0.138281 8.22064 0.384423 7.93934C0.630564 7.65804 0.964403 7.5 1.3125 7.5H19.6875C20.0356 7.5 20.3694 7.65804 20.6156 7.93934C20.8617 8.22064 21 8.60218 21 9C21 9.39782 20.8617 9.77936 20.6156 10.0607C20.3694 10.342 20.0356 10.5 19.6875 10.5H1.3125C0.964403 10.5 0.630564 10.342 0.384423 10.0607C0.138281 9.77936 0 9.39782 0 9ZM0 16.5C0 16.1022 0.138281 15.7206 0.384423 15.4393C0.630564 15.158 0.964403 15 1.3125 15H19.6875C20.0356 15 20.3694 15.158 20.6156 15.4393C20.8617 15.7206 21 16.1022 21 16.5C21 16.8978 20.8617 17.2794 20.6156 17.5607C20.3694 17.842 20.0356 18 19.6875 18H1.3125C0.964403 18 0.630564 17.842 0.384423 17.5607C0.138281 17.2794 0 16.8978 0 16.5Z" fill="#0D0D0D"/>
</svg>
